<?xml version="1.0" encoding="utf-8"?>
<!-- Generator: Adobe Illustrator 24.0.1, SVG Export Plug-In . SVG Version: 6.00 Build 0)  -->
<svg version="1.1" id="Layer_1" xmlns="http://www.w3.org/2000/svg" xmlns:xlink="http://www.w3.org/1999/xlink" x="0px" y="0px"
	 viewBox="0 0 1366 768" style="enable-background:new 0 0 1366 768;" xml:space="preserve">
<style type="text/css">
	.st0{fill:#BED3BE;}
</style>
<path class="st0" d="M548,0l88.08,0.32c0,0,62.39,55.57,22.71,97.32c-39.68,41.76-85.1,68.41-68.82,97.32s-14.22,17.34-22.02,22.48
	s-10.32,19.59-10.32,19.59s-0.69,9.64-9.63,9.96V0z"/>
<path class="st0" d="M460-227.8c0,0,177-246.18,384-92.96s240,53.37,336,13.77s164,55.09,203,106.74c0,0-275-136-339,98.13
	s-235-179.04-400-151.5S572-276.01,460-227.8z"/>
</svg>
